<?xml version="1.0" standalone="no"?>
<!DOCTYPE svg PUBLIC "-//W3C//DTD SVG 20010904//EN"
 "http://www.w3.org/TR/2001/REC-SVG-20010904/DTD/svg10.dtd">
<svg version="1.0" xmlns="http://www.w3.org/2000/svg"
 width="1080.000000pt" height="1080.000000pt" viewBox="0 0 1080.000000 1080.000000"
 preserveAspectRatio="xMidYMid meet">
<metadata>
Created by potrace 1.14, written by Peter Selinger 2001-2017
</metadata>
<g transform="translate(0.000000,1080.000000) scale(0.100000,-0.100000)"
fill="#000000" stroke="none">
<path d="M5098 10305 c-2 -3 -76 -12 -164 -20 -603 -58 -1151 -212 -1689 -475
-755 -370 -1400 -923 -1870 -1601 -469 -676 -762 -1447 -849 -2234 -9 -77 -21
-183 -27 -235 -16 -136 -7 -637 15 -825 74 -645 214 -1135 481 -1680 324 -660
766 -1212 1340 -1669 281 -224 502 -367 829 -536 473 -244 988 -410 1506 -485
290 -42 402 -50 730 -50 318 0 418 7 695 46 723 103 1415 366 2025 772 915
610 1608 1522 1948 2567 110 337 169 616 218 1030 21 176 30 650 15 790 -6 58
-18 173 -27 255 -81 788 -383 1588 -849 2255 -581 828 -1407 1462 -2353 1806
-354 128 -756 221 -1117 259 -82 9 -174 20 -204 25 -55 10 -643 14 -653 5z
m770 -1460 c804 -125 1541 -522 2079 -1119 122 -135 291 -356 372 -485 244
-389 426 -891 497 -1371 24 -156 27 -207 28 -479 1 -235 -2 -305 -11 -308 -7
-3 -48 31 -91 75 -224 226 -370 568 -602 1407 -189 683 -307 1018 -442 1253
-245 428 -553 534 -959 331 -78 -38 -287 -175 -347 -226 -28 -24 -82 -150
-421 -978 -214 -522 -491 -1200 -616 -1505 -125 -305 -246 -600 -268 -655 -22
-55 -43 -104 -47 -108 -4 -5 -34 5 -66 22 -242 122 -538 178 -884 168 -212 -6
-349 -24 -537 -73 -417 -106 -805 -316 -1068 -579 -98 -97 -209 -239 -253
-322 -15 -29 -31 -51 -37 -50 -15 5 -110 232 -166 397 -192 559 -239 1174
-134 1743 125 680 399 1235 872 1772 185 209 507 471 788 640 125 76 384 201
537 261 284 111 600 183 953 218 22 2 180 2 350 0 271 -3 330 -6 473 -29z
m1001 -2206 c25 -6 83 -28 129 -51 251 -123 402 -312 752 -943 148 -268 223
-391 316 -521 382 -535 805 -584 1394 -162 52 37 110 80 128 94 62 51 43 15
-56 -103 -266 -317 -523 -497 -743 -520 l-58 -6 -56 -166 c-245 -724 -693
-1331 -1305 -1768 -318 -227 -764 -432 -1159 -533 -331 -84 -507 -103 -934
-98 -366 5 -376 6 -687 74 -213 47 -501 143 -712 238 -162 73 -563 309 -553
326 2 4 80 10 172 13 551 18 1081 217 1489 560 198 166 357 390 544 767 154
308 271 589 380 910 54 160 83 232 450 1125 31 77 97 237 145 355 133 325 166
404 178 418 11 14 97 10 186 -9z m-2239 -1847 c0 -5 -51 -14 -112 -21 -251
-27 -516 -98 -768 -208 -356 -154 -663 -388 -863 -657 -70 -95 -158 -272 -187
-376 -30 -107 -37 -273 -16 -374 9 -44 14 -81 12 -83 -4 -5 -43 43 -141 172
l-67 89 7 80 c25 289 221 610 515 845 184 148 415 280 645 369 185 72 452 139
645 161 100 11 330 13 330 3z"/>
<path d="M5448 8595 c-9 -71 -38 -117 -89 -137 -24 -9 -62 -20 -84 -23 -46 -8
-34 -19 32 -30 85 -14 141 -82 142 -172 1 -49 18 -40 26 14 14 96 56 144 140
157 63 11 75 23 29 31 -108 18 -145 50 -165 140 -16 71 -25 77 -31 20z"/>
<path d="M3465 6628 c-18 -169 -66 -293 -130 -342 -52 -40 -123 -62 -262 -82
-125 -17 -153 -34 -60 -34 127 -1 272 -48 337 -110 58 -55 82 -116 106 -268
16 -105 34 -141 34 -67 0 51 26 173 50 237 27 71 85 131 154 157 28 10 101 27
161 37 61 10 114 21 118 25 5 4 -15 10 -45 14 -97 12 -226 43 -266 64 -47 24
-88 70 -115 130 -22 51 -57 209 -57 264 0 60 -17 43 -25 -25z"/>
<path d="M5331 6575 c-17 -76 -39 -99 -113 -120 l-63 -18 43 -8 c83 -15 112
-46 140 -149 l9 -35 7 30 c24 99 50 129 133 150 l48 13 -45 12 c-25 7 -57 18
-71 26 -28 14 -59 77 -59 119 0 45 -17 34 -29 -20z"/>
</g>
</svg>
